C:\Users\israe\Dropbox\PhDWork\ExperimentalData\subject14\145\P14S145W05_filtered35.mot
nRows=18
nColumns=28

name C:\Users\israe\Dropbox\PhDWork\ExperimentalData\subject14\145\P14S145W05_filtered35.mot
datacolumns 28
datarows 18
range 1.5670000000 1.5840000000
endheader
time	ground_force_1_vx	ground_force_1_vy	ground_force_1_vz	ground_force_1_px	ground_force_1_py	ground_force_1_pz	ground_moment_1_mx	ground_moment_1_my	ground_moment_1_mz	ground_force_2_vx	ground_force_2_vy	ground_force_2_vz	ground_force_2_px	ground_force_2_py	ground_force_2_pz	ground_moment_2_mx	ground_moment_2_my	ground_moment_2_mz	ground_force_3_vx	ground_force_3_vy	ground_force_3_vz	ground_force_3_px	ground_force_3_py	ground_force_3_pz	ground_moment_3_mx	ground_moment_3_my	ground_moment_3_mz
        1.5670000000	        0.0000000000	        0.0000000000	        0.0000000000	        0.1988394961	        0.0000558755	       -0.3004071324	       -0.0000000000	       -0.0000000000	        0.0000000000	       -0.0000000000	        0.0000000000	        0.0000000000	        0.2029003516	       -0.0000795827	        0.4543649445	       -0.0000000000	       -0.0000000000	        0.0000000000	        0.0014281780	        0.0102507378	        0.0028545546	        0.2076431971	        0.0000770316	        1.3583900146	       -0.0012809342	        0.0004172140	       -0.0002208523	
        1.5680000000	        0.0000000000	        0.0000000000	        0.0000000000	        0.1988394961	        0.0000558755	       -0.3004071324	       -0.0000000000	       -0.0000000000	        0.0000000000	       -0.0000000000	        0.0000000000	        0.0000000000	        0.2029003516	       -0.0000795827	        0.4543649445	       -0.0000000000	       -0.0000000000	        0.0000000000	        0.0009483510	        0.0060649469	        0.0017120760	        0.2076431971	        0.0000770316	        1.3583900146	       -0.0007288525	        0.0002669387	       -0.0001014539	
        1.5690000000	        0.0000000000	        0.0000000000	        0.0000000000	        0.1988394961	        0.0000558755	       -0.3004071324	       -0.0000000000	       -0.0000000000	        0.0000000000	       -0.0000000000	        0.0000000000	        0.0000000000	        0.2029003516	       -0.0000795827	        0.4543649445	       -0.0000000000	       -0.0000000000	        0.0000000000	        0.0005632647	        0.0028440204	        0.0008293960	        0.2076431971	        0.0000770316	        1.3583900146	       -0.0003084857	        0.0001482196	       -0.0000140622	
        1.5700000000	        0.0000000000	        0.0000000000	        0.0000000000	        0.1988394961	        0.0000558755	       -0.3004071324	       -0.0000000000	       -0.0000000000	        0.0000000000	       -0.0000000000	        0.0000000000	        0.0000000000	        0.2029003516	       -0.0000795827	        0.4543649445	       -0.0000000000	       -0.0000000000	        0.0000000000	        0.0002666123	        0.0004797995	        0.0001783580	        0.2076431971	        0.0000770316	        1.3583900146	       -0.0000038578	        0.0000583579	        0.0000461299	
        1.5710000000	        0.0000000000	        0.0000000000	        0.0000000000	        0.1988394961	        0.0000558755	       -0.3004071324	       -0.0000000000	       -0.0000000000	        0.0000000000	       -0.0000000000	        0.0000000000	        0.0000000000	        0.2029003516	       -0.0000795827	        0.4543649445	       -0.0000000000	       -0.0000000000	        0.0000000000	        0.0000485709	        0.0000000000	       -0.0002746654	        0.2076431971	        0.0000770316	        1.3583900146	        0.0002031281	       -0.0000062868	        0.0000840897	
        1.5720000000	        0.0000000000	        0.0000000000	        0.0000000000	        0.1988394961	        0.0000558755	       -0.3004071324	       -0.0000000000	       -0.0000000000	        0.0000000000	       -0.0000000000	        0.0000000000	        0.0000000000	        0.2029003516	       -0.0000795827	        0.4543649445	       -0.0000000000	       -0.0000000000	        0.0000000000	       -0.0001024531	        0.0000000000	       -0.0005649072	        0.2076431971	        0.0000770316	        1.3583900146	        0.0003308735	       -0.0000497657	        0.0001045818	
        1.5730000000	        0.0000000000	        0.0000000000	        0.0000000000	        0.1988394961	        0.0000558755	       -0.3004071324	       -0.0000000000	       -0.0000000000	        0.0000000000	       -0.0000000000	        0.0000000000	        0.0000000000	        0.2029003516	       -0.0000795827	        0.4543649445	       -0.0000000000	       -0.0000000000	        0.0000000000	       -0.0001985283	        0.0000000000	       -0.0007264818	        0.2076431971	        0.0000770316	        1.3583900146	        0.0003968337	       -0.0000761547	        0.0001119345	
        1.5740000000	        0.0000000000	        0.0000000000	        0.0000000000	        0.1988394961	        0.0000558755	       -0.3004071324	       -0.0000000000	       -0.0000000000	        0.0000000000	       -0.0000000000	        0.0000000000	        0.0000000000	        0.2029003516	       -0.0000795827	        0.4543649445	       -0.0000000000	       -0.0000000000	        0.0000000000	       -0.0002512894	        0.0000000000	       -0.0007906059	        0.2076431971	        0.0000770316	        1.3583900146	        0.0004167275	       -0.0000892913	        0.0001099091	
        1.5750000000	        0.0000000000	        0.0000000000	        0.0000000000	        0.1988394961	        0.0000558755	       -0.3004071324	       -0.0000000000	       -0.0000000000	        0.0000000000	       -0.0000000000	        0.0000000000	        0.0000000000	        0.2029003516	       -0.0000795827	        0.4543649445	        0.0000000000	       -0.0000000000	       -0.0000000000	       -0.0002713475	        0.0000000000	       -0.0007845737	        0.2076431971	        0.0000770316	        1.3583900146	        0.0004041102	       -0.0000926104	        0.0001016458	
        1.5760000000	        0.0000000000	        0.0000000000	        0.0000000000	        0.1988394961	        0.0000558755	       -0.3004071324	       -0.0000000000	       -0.0000000000	        0.0000000000	        0.0000000000	        0.0000000000	       -0.0000000000	        0.2029003516	       -0.0000795827	        0.4543649445	        0.0000000000	        0.0000000000	       -0.0000000000	       -0.0002679535	        0.0000000000	       -0.0007313060	        0.2076431971	        0.0000770316	        1.3583900146	        0.0003702193	       -0.0000890586	        0.0000896670	
        1.5770000000	        0.0000000000	        0.0000000000	        0.0000000000	        0.1988394961	        0.0000558755	       -0.3004071324	       -0.0000000000	       -0.0000000000	        0.0000000000	        0.0000000000	        0.0000000000	       -0.0000000000	        0.2029003516	       -0.0000795827	        0.4543649445	        0.0000000000	        0.0000000000	       -0.0000000000	       -0.0002488559	        0.0000000000	       -0.0006493193	        0.2076431971	        0.0000770316	        1.3583900146	        0.0003240145	       -0.0000810662	        0.0000759173	
        1.5780000000	        0.0000000000	        0.0000000000	        0.0000000000	        0.1988394961	        0.0000558755	       -0.3004071324	       -0.0000000000	       -0.0000000000	       -0.0000000000	        0.0000000000	        0.0000000000	       -0.0000000000	        0.2029003516	       -0.0000795827	        0.4543649445	        0.0000000000	        0.0000000000	       -0.0000000000	       -0.0002202975	        0.0000000000	       -0.0005529802	        0.2076431971	        0.0000770316	        1.3583900146	        0.0002723485	       -0.0000705611	        0.0000618275	
        1.5790000000	        0.0000000000	        0.0000000000	       -0.0000000000	        0.1988394961	        0.0000558755	       -0.3004071324	        0.0000000000	       -0.0000000000	       -0.0000000000	        0.0000000000	        0.0000000000	       -0.0000000000	        0.2029003516	       -0.0000795827	        0.4543649445	        0.0000000000	        0.0000000000	       -0.0000000000	       -0.0001871083	        0.0000000000	       -0.0004529385	        0.2076431971	        0.0000770316	        1.3583900146	        0.0002202143	       -0.0000590090	        0.0000483900	
        1.5800000000	        0.0000000000	        0.0000000000	       -0.0000000000	        0.1988394961	        0.0000558755	       -0.3004071324	        0.0000000000	        0.0000000000	       -0.0000000000	        0.0000000000	        0.0000000000	       -0.0000000000	        0.2029003516	       -0.0000795827	        0.4543649445	        0.0000000000	        0.0000000000	       -0.0000000000	       -0.0001528564	        0.0000000000	       -0.0003566542	        0.2076431971	        0.0000770316	        1.3583900146	        0.0001710299	       -0.0000474705	        0.0000362374	
        1.5810000000	       -0.0000000000	        0.0000000000	       -0.0000000000	        0.1988394961	        0.0000558755	       -0.3004071324	        0.0000000000	        0.0000000000	       -0.0000000000	        0.0000000000	        0.0000000000	       -0.0000000000	        0.2029003516	       -0.0000795827	        0.4543649445	        0.0000000000	        0.0000000000	       -0.0000000000	       -0.0001200300	        0.0000000000	       -0.0002689547	        0.2076431971	        0.0000770316	        1.3583900146	        0.0001269301	       -0.0000366643	        0.0000257185	
        1.5820000000	       -0.0000000000	        0.0000000000	       -0.0000000000	        0.1988394961	        0.0000558755	       -0.3004071324	        0.0000000000	        0.0000000000	       -0.0000000000	        0.0000000000	        0.0000000000	       -0.0000000000	        0.2029003516	       -0.0000795827	        0.4543649445	        0.0000000000	        0.0000000000	       -0.0000000000	       -0.0000902285	        0.0000000000	       -0.0001925781	        0.2076431971	        0.0000770316	        1.3583900146	        0.0000890451	       -0.0000270324	        0.0000169676	
        1.5830000000	       -0.0000000000	        0.0000000000	       -0.0000000000	        0.1988394961	        0.0000558755	       -0.3004071324	        0.0000000000	        0.0000000000	       -0.0000000000	        0.0000000000	        0.0000000000	       -0.0000000000	        0.2029003516	       -0.0000795827	        0.4543649445	        0.0000000000	        0.0000000000	       -0.0000000000	       -0.0000643477	        0.0000000000	       -0.0001286730	        0.2076431971	        0.0000770316	        1.3583900146	        0.0000577525	       -0.0000188012	        0.0000099652	
        1.5840000000	       -0.0000000000	        0.0000000000	       -0.0000000000	        0.1988394961	        0.0000558755	       -0.3004071324	        0.0000000000	        0.0000000000	       -0.0000000000	        0.0000000000	        0.0000000000	       -0.0000000000	        0.2029003516	       -0.0000795827	        0.4543649445	        0.0000000000	        0.0000000000	       -0.0000000000	       -0.0000427500	        0.0000000000	       -0.0000772374	        0.2076431971	        0.0000770316	        1.3583900146	        0.0000328952	       -0.0000120364	        0.0000045882	
